<svg width="598" height="389" viewBox="0 0 598 389" fill="none" xmlns="http://www.w3.org/2000/svg">
<path d="M44.8021 0C38.9324 0 33.3646 1.23438 28.2341 3.2656L281.634 224.692C292.587 234.26 304.254 234.27 315.233 224.692L569.099 3.2656C563.974 1.2292 558.402 0 552.531 0H44.7981H44.8021ZM0.46874 38.5C0.182287 40.5364 0 42.6771 0 44.7969V343.464C0 368.281 19.9787 388.266 44.8027 388.266H552.536C577.353 388.266 597.339 368.288 597.339 343.464V44.7969C597.339 42.6772 597.156 40.5365 596.87 38.4948L344.63 258.535C318.313 281.488 278.547 281.524 252.229 258.535L0.468577 38.4948L0.46874 38.5Z" fill="#FAE30C"/>
</svg>
