<svg width="569" height="597" viewBox="0 0 569 597" fill="none" xmlns="http://www.w3.org/2000/svg">
<path d="M520.543 557.981C503.965 600.169 465.814 605.543 416.461 586.131C281.687 533.115 48.354 279.105 6.98071 140.291C-8.25396 89.5205 0.334854 51.9632 43.7927 38.9685C94.9381 23.7338 148.923 -34.8022 192.606 29.5622C218.59 67.9422 302.814 149.256 254.653 187.936C234.715 203.988 222.174 219.816 215.975 228.701C241.663 269.018 308.038 341.373 346.043 370.341C355.45 364.888 372.325 353.762 389.95 335.248C432.586 290.524 506.502 381.393 542.497 410.513C602.903 459.492 540.106 508.253 520.543 557.98V557.981Z" fill="#FAE30C"/>
</svg>
