<?xml version="1.0" encoding="utf-8"?>
<!-- Generator: Adobe Illustrator 25.2.1, SVG Export Plug-In . SVG Version: 6.00 Build 0)  -->
<svg version="1.1" id="Layer_1" xmlns="http://www.w3.org/2000/svg" xmlns:xlink="http://www.w3.org/1999/xlink" x="0px" y="0px"
	 viewBox="0 0 769.1 648" style="enable-background:new 0 0 769.1 648;" xml:space="preserve">
<path d="M84.4,49l-0.9,11.8H60.3v-10c0-14.9-1.8-20.2-10.6-20.2c-8.5,0-10.8,4-10.8,16.1c0,32.3,47.2,30,47.2,71.4
	c0,23-11.5,35.1-36.9,35.1c-25.3,0-35.9-10.7-35.9-35.3l0.5-7.2h23.5v6.3c0,12.6,3,16.8,11.8,16.8s12.2-3.5,12.2-14.9
	c0-27.9-47.2-25.6-47.2-73.2c0-23.3,10.8-35.4,35.5-35.4C75.3,10.4,84.4,22.7,84.4,49z M168,13.1v22.3h-37.3v40.2h30.2v20.7h-30.2
	v32.1H168v22.3h-62.1V13.1H168z M309.6,150.6H285l-3.4-66.5L280,33.9h-4.2l-6,49.3l-8.1,67.4h-31.8L221.6,82l-5.8-48.1h-3.9l-1.6,50
	l-3,66.7h-24.6L192,13.1h41.5l6.4,53.7l5.8,63.5h0.2l5.7-63.2l6.5-54h41.5L309.6,150.6z M337.7,13.1h46.1l16.8,137.5h-25.1l-3-30.2
	h-23.3l-3,30.2h-25.1L337.7,13.1z M370.6,99.9l-6-66H357l-5.8,66H370.6z M496.6,13.1v137.5H465L445.2,75L439,42.4h-2.3l3.2,53.5
	v54.7h-23V13.1h31.8L468,85.9l6.5,34.6h2.3l-3-54.9V13.1H496.6z M529.7,13.1h46.1l16.8,137.5h-25.1l-3-30.2h-23.3l-3,30.2h-25.1
	L529.7,13.1z M562.6,99.9l-6-66H549l-5.8,66H562.6z"/>
<path d="M45.3,168.3C77.6,168.3,92,182,92,236s-14.7,69.8-46.7,69.8h-29V168.3H45.3z M66.5,236c0-39.5-5-46.5-20.3-46.5H41v95.1h5.1
	C61.6,284.6,66.5,275.5,66.5,236z M174,168.3v22.3h-37.3v40.2h30.2v20.7h-30.2v32.1H174v22.3h-62.1V168.3H174z M289.8,206.9l-1.2,34
	h-22.3v-34c0-15.6-1.6-20.2-10.6-20.2c-8.8,0-10.6,4.6-10.6,20.2V262c0,18.1,5.7,22.8,21.4,22.8h21.9v21.1l-21.9,1.2
	c-34.1,0-46.5-10-46.5-45.1v-54.2c0-28.8,8.5-42.1,35.7-42.1C282.2,165.7,289.8,178.1,289.8,206.9z M335.2,168.3v137.5h-25.1V168.3
	H335.2z M437.9,168.3v137.5h-31.6l-19.8-75.6l-6.2-32.6H378l3.2,53.5v54.7h-23V168.3H390l19.3,72.8l6.5,34.6h2.3l-3-54.9v-52.5
	L437.9,168.3L437.9,168.3z M523,168.3v22.3h-37.3v40.2h30.2v20.7h-30.2v32.1H523v22.3h-62.1V168.3H523z M664.6,305.8H640l-3.4-66.5
	l-1.6-50.2h-4.2l-6,49.3l-8.1,67.4h-31.8l-8.3-68.6l-5.8-48.1h-3.9l-1.6,50l-3,66.7h-24.6l9.4-137.5h41.5L595,222l5.8,63.5h0.2
	l5.7-63.2l6.5-54h41.5L664.6,305.8z M692.7,168.3h46.1l16.8,137.5h-25.1l-3-30.2h-23.3l-3,30.2h-25.1L692.7,168.3z M725.6,255.1
	l-6-66H712l-5.8,66H725.6z"/>
<path d="M96,323.6v137.5H64.4l-19.8-75.6l-6.2-32.6h-2.3l3.2,53.5v54.7h-23V323.6h31.8l19.3,72.8l6.5,34.6h2.3l-3-54.9v-52.5
	L96,323.6L96,323.6z M181.1,323.6v22.3h-37.3V386H174v20.7h-30.2v32.1h37.3v22.3H119V323.6H181.1z M271.2,394.6v29.6
	c0,28.1-9.9,39.5-35,39.5c-26,0-37.5-11.6-37.5-39.8V363c0-28.2,10.6-42.1,36.1-42.1c26,0,35.2,13,35.2,36.8l-0.7,19.6H246v-16.1
	c0-13.5-1.1-19.3-11.1-19.3c-9.4,0-11,5.8-11,20.2v61.8c0,14.4,2.8,19.3,12.6,19.3c9.9,0,12.6-4.4,12.6-18.9v-10.2h-12.4v-19.5
	L271.2,394.6L271.2,394.6z M320.9,323.6c28.8,0,44.4,10.9,44.4,46.3c0,21.8-6.7,35.8-18.7,43.2l20.9,48.1h-26.2l-16.6-41.6
	c-1.6,0.2-3.2,0.2-5,0.2h-3.5v41.4h-24.6V323.6H320.9z M340.2,370.4c0-20.7-4.4-25.8-20.2-25.8h-3.9v54.6h2.7
	C335.2,399.2,340.2,391.8,340.2,370.4z M383.3,365c0-28.1,9.7-44,37.8-44c27.9,0,37.7,16,37.7,44v54.7c0,28.1-9.7,44-37.7,44
	c-28.1,0-37.8-16-37.8-44V365z M421,442.7c10.3,0,12.6-6,12.6-23V365c0-17-2.3-23-12.6-23c-9.9,0-12.4,6-12.4,23v54.7
	C408.6,436.7,411.1,442.7,421,442.7z"/>
<path d="M27.5,481.2c12,0,17.3,5.1,17.3,25.3c0,20.2-5.4,26.1-17.3,26.1H16.7v-51.5h10.8V481.2z M35.3,506.5
	c0-14.8-1.8-17.4-7.6-17.4h-1.9v35.6h1.9C33.5,524.7,35.3,521.3,35.3,506.5z M75.3,481.2v8.3H61.4v15h11.2v7.7H61.4v12h13.9v8.3h-23
	V481h23V481.2z M104.3,481.2c10.9,0,15.3,4.2,15.3,14.4c0,5.8-1.9,9.7-5.5,12c4.1,1.8,6.3,5.3,6.3,11.3c0,10-5.1,13.8-15.7,13.8H93
	v-51.5H104.3z M110.2,496.2c0-5.9-1.2-7.4-6.2-7.4h-2v16h2C109.3,504.8,110.2,502.1,110.2,496.2z M111.2,518.4
	c0-5.4-1.6-6.8-6.8-6.8H102v13.5h2.4C109.5,525.1,111.2,523.7,111.2,518.4z M150.3,481.2v8.3h-13.9v15h11.2v7.7h-11.2v12h13.9v8.3
	h-23V481h23V481.2z M166.8,481.2v43.1h11.6v8.3h-20.9v-51.5h9.3V481.2z M182.7,496.7c0-10.5,3.6-16.5,14.1-16.5c10.4,0,14,6,14,16.5
	v20.5c0,10.5-3.6,16.5-14,16.5s-14.1-6-14.1-16.5V496.7z M196.7,525.8c3.8,0,4.7-2.2,4.7-8.6v-20.5c0-6.4-0.9-8.6-4.7-8.6
	c-3.7,0-4.6,2.2-4.6,8.6v20.5C192.1,523.5,193,525.8,196.7,525.8z M238.5,481.2v24.4h8.8v-24.4h9.3v51.5h-9.3v-18.9h-8.8v18.9h-9.3
	v-51.5H238.5z M264.5,496.7c0-10.5,3.6-16.5,14.1-16.5c10.4,0,14,6,14,16.5v20.5c0,10.5-3.6,16.5-14,16.5s-14.1-6-14.1-16.5V496.7z
	 M278.5,525.8c3.8,0,4.7-2.2,4.7-8.6v-20.5c0-6.4-0.9-8.6-4.7-8.6c-3.7,0-4.6,2.2-4.6,8.6v20.5C273.9,523.5,274.8,525.8,278.5,525.8
	z M311.3,481.2c10.7,0,16.5,4.1,16.5,17.3c0,8.1-2.5,13.4-7,16.2l7.7,18h-9.7l-6.2-15.6c-0.6,0.1-1.2,0.1-1.8,0.1h-1.3v15.5h-9.1
	v-51.5H311.3z M318.5,498.7c0-7.7-1.6-9.7-7.5-9.7h-1.4v20.4h1C316.6,509.5,318.5,506.7,318.5,498.7z M344.5,481.2v51.5h-9.3v-51.5
	H344.5z M360.9,523.6l0.1,0.7h15.2v8.3h-24.9l-0.4-8.3l15.6-34.1l-0.1-0.7h-14v-8.3H376l0.4,8.3L360.9,523.6z M382.3,496.7
	c0-10.5,3.6-16.5,14.1-16.5c10.4,0,14,6,14,16.5v20.5c0,10.5-3.6,16.5-14,16.5s-14.1-6-14.1-16.5V496.7z M396.3,525.8
	c3.8,0,4.7-2.2,4.7-8.6v-20.5c0-6.4-0.9-8.6-4.7-8.6c-3.7,0-4.6,2.2-4.6,8.6v20.5C391.7,523.5,392.6,525.8,396.3,525.8z
	 M447.8,481.2v51.5H436l-7.4-28.3l-2.3-12.2h-0.9l1.2,20v20.5h-8.5v-51.5H430l7.2,27.2l2.4,12.9h0.9l-1.1-20.6v-19.6L447.8,481.2
	L447.8,481.2z M479.7,481.2v8.3H471v43.1h-9.3v-43.1H453v-8.3L479.7,481.2L479.7,481.2z M507.8,481.2v8.3h-13.9v15h11.2v7.7h-11.2
	v12h13.9v8.3h-23V481h23V481.2z"/>
<path d="M58,606.6l-28.8,28.8l-11.1-10.6l18.4-18.2l-18.4-18.2l11.1-10.6L58,606.6z M109.4,587.6l-18.7,19l18.7,18.9l-11.1,10.6
	l-18.1-18.7l-18.1,18.7L51,625.5l18.7-18.9l-18.7-19l11.1-10.4l18.1,18.7l18.1-18.7L109.4,587.6z M142.6,588.4l-18.4,18.2l18.4,18.2
	l-11.2,10.6l-28.8-28.8l28.8-28.8L142.6,588.4z"/>
<path d="M182.3,598.3v2.8h-6.4v8.7h5.2v2.7h-5.2v9.3h-3v-23.5H182.3z M187,615.2v0.7c0,2.8,0.7,3.6,3.4,3.6h3.2v2.3l-3.2,0.1
	c-4.6,0-6.2-1.9-6.2-6.1v-5.2c0-3.9,1.4-5.9,4.9-5.9s4.8,2,4.8,6.1l-0.1,4.4L187,615.2L187,615.2z M187,612.9h4.3v-2.3
	c0-2.5-0.5-3.4-2.2-3.4s-2.2,1-2.2,3.4L187,612.9L187,612.9z M206.5,609.5l-0.1,1.3h-2.6v-1c0-2.1-0.4-2.8-1.9-2.8
	c-1.3,0-1.9,0.6-1.9,2.1c0,1.6,1.2,2.5,2.5,3.2c1.9,1,4.2,1.9,4.2,5.4c0,2.9-1.4,4.4-4.8,4.4s-4.8-1.4-4.8-4.5l0.1-1h2.6v0.8
	c0,1.7,0.6,2.3,2,2.3s2.1-0.5,2.1-2.1c0-1.8-1.5-2.4-3.1-3.2c-1.8-0.9-3.6-2.3-3.6-5.4c0-2.8,1.4-4.4,4.6-4.4
	C205.3,604.7,206.5,606.4,206.5,609.5z M217,619.5v2.3l-1.7,0.1c-3.1,0-4.6-1.5-4.6-4.6v-9.8h-2v-2.4h2l0.4-4.4h2.5v4.4h3.3v2.4
	h-3.3v9.5c0,1.9,0.8,2.4,2.2,2.4L217,619.5L217,619.5z M219.5,601.2c0-1.3,0.7-1.9,1.8-1.9s1.8,0.6,1.8,1.9c0,1.3-0.7,1.9-1.8,1.9
	S219.5,602.6,219.5,601.2z M222.7,605.2v16.6h-2.8v-16.6H222.7z M236.2,605.2l-2.6,16.6h-5.2l-2.6-16.6h2.9l1.3,8.6l0.7,5.5h0.8
	l1.9-14.2h2.8V605.2z M242.3,622.1c-2.5,0-4.1-1.4-4.1-5.1c0-3.8,2.3-5.5,5.7-5.5h1.4v-1.3c0-2.1-0.5-3-2.2-3
	c-1.2,0-2.4,0.3-3.5,0.6l-0.5-2.2c1.3-0.5,2.7-0.8,4.4-0.8c3.2,0,4.6,1.5,4.6,4.8v7.9l0.4,4.2L246,622l-0.4-1.9
	C245.2,620.7,244.4,622.1,242.3,622.1z M241,616.9c0,2.2,0.8,2.8,1.8,2.8c1.1,0,1.9-0.9,2.5-1.7v-4.1h-1.4
	C242.1,613.8,241,614.6,241,616.9z M257.1,619.5v2.3l-1.6,0.1c-2.6,0-3.5-1.2-3.5-3.9v-19.8h2.8v19.6c0,1.4,0.5,1.6,1.5,1.6h0.8
	V619.5z M274.7,621.8l-2.4,0.2l-0.4-1.9c-0.6,0.8-1.6,2.1-3.5,2.1c-2.9,0-4.1-2.2-4.1-6.1v-4.9c0-4,1.6-6.4,5.1-6.4
	c1,0,1.7,0.2,2.2,0.4c0-0.7-0.1-1.8-0.1-2.5v-4.3h2.8v19.3L274.7,621.8z M271.6,607.6c-0.5-0.2-1.2-0.3-2-0.3
	c-1.7,0-2.5,1.2-2.5,3.9v4.9c0,2.8,0.7,3.5,1.8,3.5c1.1,0,2-0.9,2.6-1.6v-10.4H271.6z M280.9,615.2v0.7c0,2.8,0.7,3.6,3.4,3.6h3.2
	v2.3l-3.2,0.1c-4.6,0-6.2-1.9-6.2-6.1v-5.2c0-3.9,1.4-5.9,4.9-5.9s4.8,2,4.8,6.1l-0.1,4.4L280.9,615.2L280.9,615.2z M280.9,612.9
	h4.3v-2.3c0-2.5-0.5-3.4-2.2-3.4s-2.2,1-2.2,3.4v2.3H280.9z M307.5,604.6l-0.1,6.1h-2.7v-6.1c0-3.2-0.5-4-2.5-4
	c-1.9,0-2.5,0.8-2.5,4v9.9c0,3.6,1.3,4.6,4.4,4.6h3.3v2.6l-3.3,0.1c-5.3,0-7.4-1.7-7.4-7.4v-9.9c0-4.7,1.5-6.7,5.5-6.7
	C306.1,597.8,307.5,599.9,307.5,604.6z M311.2,601.2c0-1.3,0.7-1.9,1.8-1.9s1.8,0.6,1.8,1.9c0,1.3-0.7,1.9-1.8,1.9
	S311.2,602.6,311.2,601.2z M314.4,605.2v16.6h-2.8v-16.6H314.4z M328.6,609.8v11.9h-2.8v-11.9c0-1.9-0.4-2.5-1.5-2.5s-2.3,1-2.9,1.6
	v12.7h-2.8v-12.4l-0.4-4.1l2.5-0.2l0.4,1.9c0.7-0.9,1.9-2.1,3.8-2.1C327.5,604.7,328.6,606.4,328.6,609.8z M335,615.2v0.7
	c0,2.8,0.7,3.6,3.4,3.6h3.2v2.3l-3.2,0.1c-4.6,0-6.2-1.9-6.2-6.1v-5.2c0-3.9,1.4-5.9,4.9-5.9s4.8,2,4.8,6.1l-0.2,4.4L335,615.2
	L335,615.2z M335,612.9h4.3v-2.3c0-2.5-0.5-3.4-2.2-3.4s-2.2,1-2.2,3.4v2.3H335z M362.5,609.8v11.9h-2.8v-11.9
	c0-1.9-0.3-2.5-1.4-2.5c-1.3,0-2.2,0.9-2.8,1.6v12.7h-2.8v-11.9c0-1.9-0.3-2.5-1.4-2.5c-1.3,0-2.2,0.9-2.8,1.6v12.7h-2.8v-12.4
	l-0.4-4.1l2.5-0.2l0.4,1.9c0.7-0.9,1.8-2.1,3.7-2.1c1.8,0,2.8,0.7,3.4,2.1c1.2-1.4,2.1-2.1,3.7-2.1
	C361.6,604.7,362.5,606.4,362.5,609.8z M369.8,622.1c-2.5,0-4.1-1.4-4.1-5.1c0-3.8,2.3-5.5,5.7-5.5h1.4v-1.3c0-2.1-0.4-3-2.2-3
	c-1.2,0-2.4,0.3-3.5,0.6l-0.5-2.2c1.3-0.5,2.7-0.8,4.4-0.8c3.2,0,4.6,1.5,4.6,4.8v7.9l0.4,4.2l-2.4,0.2l-0.4-1.9
	C372.7,620.7,371.9,622.1,369.8,622.1z M368.5,616.9c0,2.2,0.8,2.8,1.8,2.8c1.1,0,1.9-0.9,2.5-1.7v-4.1h-1.4
	C369.6,613.8,368.5,614.6,368.5,616.9z M388,598.3v23.5h-3v-23.5H388z M402.5,609.8v11.9h-2.8v-11.9c0-1.9-0.4-2.5-1.5-2.5
	s-2.3,1-2.9,1.6v12.7h-2.8v-12.4l-0.4-4.1l2.5-0.2l0.4,1.9c0.7-0.9,1.9-2.1,3.8-2.1C401.4,604.7,402.5,606.4,402.5,609.8z
	 M413.3,619.5v2.3l-1.7,0.1c-3.1,0-4.6-1.5-4.6-4.6v-9.8h-2v-2.4h2l0.4-4.4h2.5v4.4h3.3v2.4h-3.3v9.5c0,1.9,0.8,2.4,2.2,2.4
	L413.3,619.5L413.3,619.5z M418.5,615.2v0.7c0,2.8,0.7,3.6,3.4,3.6h3.2v2.3l-3.2,0.1c-4.6,0-6.2-1.9-6.2-6.1v-5.2
	c0-3.9,1.4-5.9,4.9-5.9s4.8,2,4.8,6.1l-0.2,4.4L418.5,615.2L418.5,615.2z M418.5,612.9h4.3v-2.3c0-2.5-0.5-3.4-2.2-3.4
	s-2.2,1-2.2,3.4v2.3H418.5z M434.9,607.6c-1.3,0-2.5,0.9-3.1,1.8v12.3H429v-12.4l-0.4-4.1l2.5-0.2l0.4,2c0.5-0.9,1.5-2,3.3-2
	c0.6,0,1.1,0.1,1.5,0.2l-0.2,2.6C435.7,607.7,435.4,607.6,434.9,607.6z M447.2,610.1l-0.1,3.8h-2.6v-3.8c0-2.2-0.4-2.9-1.9-2.9
	s-1.9,0.8-1.9,2.9v5.8c0,2.7,0.8,3.6,3.1,3.6h3v2.3l-3,0.1c-4.4,0-6-1.7-6-6.1V610c0-3.5,1.3-5.4,4.7-5.4
	C446,604.7,447.2,606.5,447.2,610.1z M454,622.1c-2.5,0-4.1-1.4-4.1-5.1c0-3.8,2.3-5.5,5.7-5.5h1.4v-1.3c0-2.1-0.4-3-2.2-3
	c-1.2,0-2.4,0.3-3.5,0.6l-0.5-2.2c1.3-0.5,2.7-0.8,4.4-0.8c3.2,0,4.6,1.5,4.6,4.8v7.9l0.4,4.2l-2.4,0.2l-0.4-1.9
	C456.8,620.7,456.1,622.1,454,622.1z M455.4,600.7H455l-1.2,2.4h-2.5l0.5-1.3l1.8-3.3h3.1l1.8,3.2l0.5,1.3h-2.5L455.4,600.7z
	 M452.7,616.9c0,2.2,0.8,2.8,1.8,2.8c1.1,0,1.9-0.9,2.5-1.7v-4.1h-1.4C453.7,613.8,452.7,614.6,452.7,616.9z M480.7,609.8v11.9h-2.8
	v-11.9c0-1.9-0.3-2.5-1.4-2.5c-1.3,0-2.2,0.9-2.8,1.6v12.7h-2.8v-11.9c0-1.9-0.3-2.5-1.4-2.5c-1.3,0-2.2,0.9-2.8,1.6v12.7h-2.8
	v-12.4l-0.4-4.1l2.5-0.2l0.4,1.9c0.7-0.9,1.8-2.1,3.7-2.1c1.8,0,2.8,0.7,3.4,2.1c1.2-1.4,2.1-2.1,3.7-2.1
	C479.7,604.7,480.7,606.4,480.7,609.8z M484.8,598.3h2.8v5.5c0,0.9,0,2-0.1,2.8c0.7-0.8,1.7-1.8,3.4-1.8c2.8,0,4,2.2,4,6.1v4.9
	c0,4.4-1.8,6.4-4.9,6.4c-1.9,0-3.7-0.4-5.1-1.1L484.8,598.3L484.8,598.3z M492,610.8c0-2.8-0.7-3.5-1.8-3.5c-1,0-2.1,0.9-2.6,1.6
	v10.3c0.6,0.2,1.2,0.3,2,0.3c1.6,0,2.4-1.2,2.4-3.9V610.8z M498.2,601.2c0-1.3,0.7-1.9,1.8-1.9s1.8,0.6,1.8,1.9
	c0,1.3-0.7,1.9-1.8,1.9S498.2,602.6,498.2,601.2z M501.4,605.2v16.6h-2.8v-16.6H501.4z M505.2,610.7c0-4.1,1.6-6,5-6
	c3.4,0,5,1.9,5,6v5.4c0,4.1-1.6,6-5,6c-3.4,0-5-1.9-5-6V610.7z M510.2,619.7c1.7,0,2.2-0.9,2.2-3.5v-5.4c0-2.6-0.5-3.5-2.2-3.5
	s-2.2,0.9-2.2,3.5v5.4C508,618.8,508.5,619.7,510.2,619.7z M535,604.6l-0.1,6.1h-2.7v-6.1c0-3.2-0.5-4-2.5-4c-1.9,0-2.5,0.8-2.5,4
	v9.9c0,3.6,1.3,4.6,4.4,4.6h3.3v2.6l-3.3,0.1c-5.3,0-7.4-1.7-7.4-7.4v-9.9c0-4.7,1.5-6.7,5.5-6.7C533.6,597.8,535,599.9,535,604.6z
	 M538.8,617.1v-12h2.8V617c0,1.7,0.3,2.5,1.5,2.5c1.1,0,2.1-1.2,2.6-1.7v-12.7h2.8v12.4l0.4,4.2l-2.5,0.2L546,620
	c-0.7,0.9-1.8,2.1-3.6,2.1C540,622.1,538.8,620.6,538.8,617.1z M557.8,619.5v2.3l-1.6,0.1c-2.6,0-3.5-1.2-3.5-3.9v-19.8h2.8v19.6
	c0,1.4,0.4,1.6,1.5,1.6h0.8V619.5z M567.1,619.5v2.3l-1.7,0.1c-3.1,0-4.6-1.5-4.6-4.6v-9.8h-2v-2.4h2l0.4-4.4h2.5v4.4h3.3v2.4h-3.3
	v9.5c0,1.9,0.8,2.4,2.2,2.4L567.1,619.5L567.1,619.5z M569.7,617.1v-12h2.8V617c0,1.7,0.3,2.5,1.5,2.5c1.1,0,2.1-1.2,2.6-1.7v-12.7
	h2.8v12.4l0.4,4.2l-2.5,0.2L577,620c-0.7,0.9-1.8,2.1-3.6,2.1C570.9,622.1,569.7,620.6,569.7,617.1z M589.6,607.6
	c-1.3,0-2.5,0.9-3.1,1.8v12.3h-2.8v-12.4l-0.4-4.1l2.5-0.2l0.4,2c0.5-0.9,1.5-2,3.3-2c0.6,0,1.1,0.1,1.5,0.2l-0.2,2.6
	C590.3,607.7,590,607.6,589.6,607.6z M596.2,622.1c-2.5,0-4.1-1.4-4.1-5.1c0-3.8,2.3-5.5,5.7-5.5h1.4v-1.3c0-2.1-0.5-3-2.2-3
	c-1.2,0-2.4,0.3-3.5,0.6l-0.5-2.2c1.3-0.5,2.7-0.8,4.4-0.8c3.2,0,4.6,1.5,4.6,4.8v7.9l0.4,4.2l-2.4,0.2l-0.4-1.9
	C599.1,620.7,598.3,622.1,596.2,622.1z M594.9,616.9c0,2.2,0.8,2.8,1.8,2.8c1.1,0,1.9-0.9,2.5-1.7v-4.1h-1.4
	C596,613.8,594.9,614.6,594.9,616.9z M610.9,619.5v2.3l-1.6,0.1c-2.6,0-3.5-1.2-3.5-3.9v-19.8h2.8v19.6c0,1.4,0.5,1.6,1.5,1.6h0.8
	V619.5z M623.5,598.3c4.7,0,6.5,2.1,6.5,6.6c0,2.7-0.8,4.5-2.5,5.5c1.9,0.7,2.8,2.3,2.8,5.1c0,4.6-2.2,6.2-6.5,6.2h-4.9v-23.5h4.6
	V598.3z M627,604.9c0-3-0.6-4-3.5-4h-1.7v8.5h1.7C626.4,609.4,627,607.9,627,604.9z M627.4,615.5c0-2.8-0.9-3.6-3.6-3.6h-2v7.2h2
	C626.5,619.1,627.4,618.3,627.4,615.5z M639.9,607.6c-1.3,0-2.5,0.9-3.1,1.8v12.3H634v-12.4l-0.4-4.1l2.5-0.2l0.4,2
	c0.5-0.9,1.5-2,3.3-2c0.6,0,1.1,0.1,1.5,0.2l-0.2,2.6C640.7,607.7,640.3,607.6,639.9,607.6z M646.6,622.1c-2.5,0-4.1-1.4-4.1-5.1
	c0-3.8,2.3-5.5,5.7-5.5h1.4v-1.3c0-2.1-0.4-3-2.2-3c-1.2,0-2.4,0.3-3.5,0.6l-0.5-2.2c1.3-0.5,2.7-0.8,4.4-0.8c3.2,0,4.6,1.5,4.6,4.8
	v7.9l0.4,4.2l-2.4,0.2L650,620C649.4,620.7,648.7,622.1,646.6,622.1z M645.3,616.9c0,2.2,0.8,2.8,1.8,2.8c1.1,0,1.9-0.9,2.5-1.7
	v-4.1h-1.4C646.3,613.8,645.3,614.6,645.3,616.9z M665.2,609.5l-0.1,1.3h-2.6v-1c0-2.1-0.4-2.8-1.9-2.8c-1.3,0-1.9,0.6-1.9,2.1
	c0,1.6,1.2,2.5,2.5,3.2c1.9,1,4.2,1.9,4.2,5.4c0,2.9-1.4,4.4-4.8,4.4s-4.8-1.4-4.8-4.5l0.1-1h2.6v0.8c0,1.7,0.6,2.3,2,2.3
	s2.1-0.5,2.1-2.1c0-1.8-1.5-2.4-3.1-3.2c-1.8-0.9-3.6-2.3-3.6-5.4c0-2.8,1.4-4.4,4.6-4.4C664,604.7,665.2,606.4,665.2,609.5z
	 M668.6,601.2c0-1.3,0.7-1.9,1.8-1.9s1.8,0.6,1.8,1.9c0,1.3-0.7,1.9-1.8,1.9S668.6,602.6,668.6,601.2z M671.8,605.2v16.6H669v-16.6
	H671.8z M680.9,619.5v2.3l-1.6,0.1c-2.6,0-3.5-1.2-3.5-3.9v-19.8h2.8v19.6c0,1.4,0.4,1.6,1.5,1.6h0.8V619.5z M690.8,612.6v2.5h-7.9
	v-2.5H690.8z M697.1,598.3h6.4l3.1,23.5h-3l-0.7-5.6h-5.1l-0.7,5.6h-3L697.1,598.3z M702.5,613.5l-1.4-12.6h-1.5l-1.5,12.6H702.5z
	 M700.7,591.8h3.1l-0.5,1.5l-1.9,3.1H699L700.7,591.8z M710.5,605.2v-1.8c0-3.8,1.5-5.5,4.5-5.5c1.2,0,2.1,0.3,2.8,0.5l-0.5,2.2
	c-0.5-0.1-1.1-0.3-1.8-0.3c-1.8,0-2.1,1.1-2.1,3.1v1.8h3.1v2.4h-3.1v14.2h-2.8v-14.2h-1.9v-2.4H710.5z M724.4,607.6
	c-1.3,0-2.5,0.9-3.1,1.8v12.3h-2.8v-12.4l-0.4-4.1l2.5-0.2l0.4,2c0.5-0.9,1.5-2,3.3-2c0.6,0,1.1,0.1,1.5,0.2l-0.2,2.6
	C725.2,607.7,724.8,607.6,724.4,607.6z M727.5,601.2c0-1.3,0.7-1.9,1.8-1.9s1.8,0.6,1.8,1.9c0,1.3-0.7,1.9-1.8,1.9
	S727.5,602.6,727.5,601.2z M730.7,605.2v16.6h-2.8v-16.6H730.7z M743.7,610.1l-0.1,3.8H741v-3.8c0-2.2-0.4-2.9-1.9-2.9
	s-1.9,0.8-1.9,2.9v5.8c0,2.7,0.8,3.6,3.1,3.6h3v2.3l-3,0.1c-4.4,0-6-1.7-6-6.1V610c0-3.5,1.3-5.4,4.7-5.4
	C742.5,604.7,743.7,606.5,743.7,610.1z M750.4,622.1c-2.5,0-4.1-1.4-4.1-5.1c0-3.8,2.3-5.5,5.7-5.5h1.4v-1.3c0-2.1-0.4-3-2.2-3
	c-1.2,0-2.4,0.3-3.5,0.6l-0.5-2.2c1.3-0.5,2.7-0.8,4.4-0.8c3.2,0,4.6,1.5,4.6,4.8v7.9l0.4,4.2l-2.4,0.2l-0.4-1.9
	C753.3,620.7,752.5,622.1,750.4,622.1z M749.2,616.9c0,2.2,0.8,2.8,1.8,2.8c1.1,0,1.9-0.9,2.5-1.7v-4.1H752
	C750.2,613.8,749.2,614.6,749.2,616.9z"/>
</svg>
