<?xml version="1.0" encoding="UTF-8"?>
<svg width="700pt" height="700pt" version="1.1" viewBox="0 0 700 700" xmlns="http://www.w3.org/2000/svg">
 <path d="m350.08 65.898c-118.06 0-214.25 96.027-214.25 214.09s96.188 214.12 214.25 214.12c118.06 0 214.09-96.059 214.09-214.12s-96.027-214.09-214.09-214.09zm0 32.812c100.26 0 181.14 81.016 181.14 181.27s-80.887 181.18-181.14 181.18c-100.26 0-181.3-80.922-181.3-181.18 0-100.26 81.051-181.27 181.3-181.27zm41.078 74.184c-4.375-0.22656-8.6562 1.3047-11.902 4.2461l-109.09 98.855c-3.4453 3.1211-5.4141 7.5547-5.4141 12.207s1.9688 9.0859 5.4141 12.207l109.09 98.855c3.2461 2.9141 7.5117 4.418 11.867 4.1914 4.3516-0.23047 8.4375-2.1758 11.359-5.4141 2.9258-3.2266 4.457-7.4844 4.25-11.836-0.20312-4.3555-2.125-8.4492-5.3438-11.391l-95.574-86.566 95.574-86.664c3.2188-2.9375 5.1406-7.0312 5.3438-11.387 0.20703-4.3516-1.3242-8.6094-4.25-11.836-2.9023-3.25-6.9766-5.2188-11.324-5.4688z" fill-rule="evenodd"/>
</svg>
