<svg height="511pt" viewBox="1 -79 511.999 511" width="511pt" xmlns="http://www.w3.org/2000/svg"><path d="m397.242188 353.601562h97.101562c9.75 0 17.65625-7.902343 17.65625-17.652343v-317.792969c0-9.753906-7.90625-17.65625-17.65625-17.65625h-476.6875c-9.753906 0-17.65625 7.90625-17.65625 17.65625v317.792969c0 9.75 7.902344 17.652343 17.65625 17.652343zm0 0" fill="#4c8056"/><path d="m79.449219 168.222656 176.550781 114.761719 176.550781-114.761719-176.550781-114.757812zm0 0" fill="#f3d55b"/><path d="m317.792969 168.222656c.066406 12.941406-4.019531 25.566406-11.652344 36.019532-4.054687 5.761718-9.109375 10.753906-14.917969 14.742187-10.324218 7.21875-22.625 11.070313-35.222656 11.03125-16.390625.011719-32.117188-6.492187-43.707031-18.085937-11.59375-11.589844-18.097657-27.3125-18.085938-43.707032-.015625-.472656.015625-.945312.085938-1.414062.070312-7.074219 1.445312-14.078125 4.0625-20.65625 10.625-27.832032 39.609375-44.109375 68.90625-38.695313 29.296875 5.414063 50.550781 30.972657 50.53125 60.765625zm0 0" fill="#3b97d3"/><path d="m306.140625 204.242188c-4.054687 5.761718-9.109375 10.753906-14.917969 14.742187l-.882812-4.945313c-3.539063-19.945312-16.011719-37.175781-33.859375-46.761718-17.847657-9.585938-39.101563-10.472656-57.683594-2.40625l-4.5 1.941406c.066406-7.078125 1.441406-14.078125 4.058594-20.65625 8.605469-2.964844 17.648437-4.457031 26.75-4.414062 38.113281-.121094 71.46875 25.601562 81.035156 62.5zm0 0" fill="#ecf0f1"/></svg>